<svg width="58" height="40" viewBox="0 0 58 40" fill="none" xmlns="http://www.w3.org/2000/svg">
<path d="m37.72 29.8-.25.55-.55 1.12-.26.5c-.24.43-.47.86-.72 1.27l-.13.22c-.28.48-.56.93-.86 1.37l-.26.4-.63.9-.3.4-.61.82-.25.32c-.27.33-.53.66-.8.97l-.13.15c-.2.25-.41.48-.61.7a3.2 3.2 0 0 1-.22.25l-.23.26c3.05-.13 6.07-.63 9-1.47a24.26 24.26 0 0 0 10.5-5.88c6.78-6.76 7.36-17.68 7.39-20.7-2.63.04-11.36.48-18 5.14a20.8 20.8 0 0 1 .18 2.75 20 20 0 0 1-.11 2c-.02.2-.03.41-.07.61-.05.46-.11.91-.2 1.36l-.13.64c-.1.47-.21.93-.35 1.4-.03.14-.06.3-.11.46a27.76 27.76 0 0 1-1.3 3.5ZM26.9 40a3.23 3.23 0 0 1-.23-.25l-.23-.26-.61-.7-.13-.15-.8-.97-.23-.32c-.22-.26-.41-.53-.63-.81l-.3-.41-.63-.9-.25-.4c-.3-.44-.6-.89-.87-1.37a32.4 32.4 0 0 1-1.1-1.99c-.2-.36-.38-.74-.56-1.12l-.25-.55c-.18-.45-.38-.9-.54-1.34l-.15-.36a28.48 28.48 0 0 1-1.06-3.65l-.12-.64c-.08-.45-.15-.9-.21-1.36l-.07-.61a20.06 20.06 0 0 1 .08-4.75C11.38 12.43 2.65 11.99 0 11.95c.03 3.02.63 13.96 7.38 20.7C13.43 38.7 22.85 39.82 26.9 40Zm-7.23-17.6c.07.41.12.84.2 1.26l.15.71c.1.38.18.76.3 1.13l.2.7c.11.37.24.74.38 1.1.08.22.14.43.23.65.15.38.31.74.48 1.1l.23.55a54.75 54.75 0 0 0 .78 1.56 38.88 38.88 0 0 0 2.6 4.12l.34.46c.17.24.35.47.52.68l.31.42.51.63c.1.11.19.21.27.33l.56.63.15.16.6.66.18.19c.07.09.16.17.25.25l.23-.25.18-.19c.18-.2.38-.4.6-.66l.15-.16.56-.63c.08-.12.18-.22.26-.33l.52-.63.31-.42c.18-.21.35-.44.53-.68.12-.14.23-.31.35-.46l.53-.78a17.77 17.77 0 0 0 .93-1.42 37.43 37.43 0 0 0 1.13-1.92l.07-.17a17.94 17.94 0 0 0 .95-1.93l.46-1.11.25-.65c.13-.36.25-.73.36-1.1l.22-.7c.1-.37.2-.75.28-1.13.05-.23.12-.48.15-.71.08-.42.15-.85.2-1.26.03-.21.07-.41.08-.63a18.43 18.43 0 0 0-.13-4.93C36.84 8.62 30.78 1.92 28.9 0a39.34 39.34 0 0 0-4.84 6.06 28.13 28.13 0 0 0-4.35 10.78c-.08.5-.13 1-.18 1.49a23.4 23.4 0 0 0 .05 3.44c.01.22.05.42.08.63Z" fill="url(#a)"/><path d="M73.98 14.21V3.33h4.54c1.05 0 1.84.23 2.38.7.55.46.82 1.14.82 2.03 0 .51-.12.96-.35 1.34-.24.37-.58.66-1.02.86a3 3 0 0 1 1.42 1.04c.35.46.53 1.03.53 1.7 0 1.04-.32 1.84-.97 2.39-.63.55-1.51.82-2.65.82h-4.7Zm1.68-6.37h2.77c.46 0 .85-.14 1.15-.4.3-.28.46-.63.46-1.05 0-.47-.15-.82-.46-1.07a2.1 2.1 0 0 0-1.34-.38h-2.58v2.9Zm0 4.75h2.92c.63 0 1.13-.14 1.48-.42.35-.28.53-.68.53-1.2 0-.48-.2-.85-.58-1.11-.37-.27-.87-.4-1.5-.4h-2.85v3.13ZM87.95 14.37c-.84 0-1.58-.18-2.24-.53a4.09 4.09 0 0 1-1.52-1.48 4.18 4.18 0 0 1-.54-2.15c0-.86.17-1.6.52-2.25.37-.65.86-1.16 1.48-1.52a4.28 4.28 0 0 1 2.16-.58 3.67 3.67 0 0 1 3.24 1.93c.33.59.48 1.27.46 2.04l-.01.68h-6.25c.1.74.4 1.32.9 1.76.52.42 1.17.63 1.96.63.4 0 .78-.06 1.12-.2.35-.13.73-.38 1.13-.73l.81 1.14a4.85 4.85 0 0 1-3.22 1.26Zm-.14-7.03c-1.4 0-2.23.63-2.5 1.9h4.57v-.11a1.8 1.8 0 0 0-.34-.92 2.11 2.11 0 0 0-1.73-.87ZM95.98 14.37a4.6 4.6 0 0 1-1.86-.36c-.54-.24-1-.6-1.36-1.06l1.08-.93c.32.36.65.63 1.02.8.37.15.79.22 1.26.22.38 0 .69-.09.93-.28a.9.9 0 0 0 .37-.76c0-.27-.1-.48-.3-.65-.2-.16-.64-.33-1.35-.51-.6-.16-1.09-.34-1.47-.53a2.8 2.8 0 0 1-.89-.67c-.3-.37-.45-.85-.45-1.42a2 2 0 0 1 .39-1.2c.26-.36.6-.64 1.04-.83.44-.21.94-.31 1.5-.31a4.1 4.1 0 0 1 3 1.3l-.92 1.01c-.3-.3-.64-.54-1.02-.71a2.2 2.2 0 0 0-.99-.28c-.45 0-.8.08-1.04.25a.83.83 0 0 0-.36.73c.01.28.12.5.34.68.22.18.68.35 1.39.53.51.13.94.29 1.27.45.34.16.61.34.81.55.2.2.35.42.44.68.08.26.12.55.12.87 0 .47-.14.89-.4 1.26-.26.36-.62.65-1.06.85-.45.21-.95.32-1.5.32ZM101.7 14.21v-6.6h-1.69V6.04h1.7V3.96h1.6v2.09h1.9V7.6h-1.9v6.61h-1.6ZM115.98 14.37a5.35 5.35 0 0 1-3.83-1.59 5.6 5.6 0 0 1-1.5-4.01c0-.81.13-1.55.38-2.23a5.39 5.39 0 0 1 2.82-2.95 5.35 5.35 0 0 1 2.13-.42 5.24 5.24 0 0 1 3.8 1.6 5.9 5.9 0 0 1 1.52 4c.01.8-.12 1.54-.4 2.22a5.25 5.25 0 0 1-4.92 3.38Zm0-1.64a3.46 3.46 0 0 0 3.16-1.92c.3-.6.46-1.29.46-2.04 0-.76-.15-1.44-.46-2.04a3.46 3.46 0 0 0-3.16-1.93c-.7 0-1.33.17-1.88.52-.54.34-.97.81-1.28 1.41a4.3 4.3 0 0 0-.46 2.04c0 .77.15 1.45.46 2.05a3.48 3.48 0 0 0 3.16 1.91ZM123.18 14.21V6.05h1.6v1.27a3.32 3.32 0 0 1 2.68-1.44c1.86 0 2.8 1.12 2.8 3.35v4.98h-1.6V9.34c0-1.4-.58-2.06-1.73-2-.4 0-.77.09-1.1.26-.33.17-.58.4-.77.69-.18.29-.28.61-.28.98v4.94h-1.6ZM132.46 14.21V2.71h1.6v11.5h-1.6ZM137.4 4.24c-.34 0-.6-.08-.79-.26a.98.98 0 0 1-.28-.75c0-.3.1-.54.28-.73.2-.18.46-.28.8-.28s.6.09.79.27c.19.17.28.42.28.74 0 .3-.1.55-.3.73-.18.19-.44.28-.78.28Zm-.77 9.97V6.05h1.6v8.16h-1.6ZM140.66 14.21V6.05h1.6v1.27a3.32 3.32 0 0 1 2.68-1.44c1.86 0 2.8 1.12 2.8 3.35v4.98h-1.6V9.34c0-1.4-.58-2.06-1.73-2-.4 0-.78.09-1.1.26-.33.17-.58.4-.77.69-.19.29-.28.61-.28.98v4.94h-1.6ZM153.72 14.37c-.84 0-1.59-.18-2.24-.53a4.09 4.09 0 0 1-1.53-1.48 4.18 4.18 0 0 1-.54-2.15c0-.86.18-1.6.53-2.25.36-.65.85-1.16 1.47-1.52a4.28 4.28 0 0 1 2.17-.58 3.67 3.67 0 0 1 3.23 1.93c.33.59.49 1.27.47 2.04l-.02.68h-6.25c.1.74.4 1.32.9 1.76.52.42 1.17.63 1.96.63.4 0 .78-.06 1.12-.2a3.9 3.9 0 0 0 1.14-.73l.8 1.14a4.85 4.85 0 0 1-3.22 1.26Zm-.14-7.03c-1.4 0-2.24.63-2.5 1.9h4.56v-.11a1.8 1.8 0 0 0-.34-.92 2.11 2.11 0 0 0-1.72-.87ZM76.05 34.2v-9.27H73v-1.61h7.87v1.61h-3.14v9.27h-1.68ZM82.53 34.2V22.7h1.6v4.61a3.31 3.31 0 0 1 2.68-1.44c1.87 0 2.8 1.12 2.8 3.36v4.97H88v-4.87c0-1.4-.58-2.06-1.73-2-.4 0-.77.09-1.1.26-.32.17-.58.4-.76.69-.2.29-.28.61-.28.98v4.94h-1.6ZM95.6 34.36c-.85 0-1.6-.18-2.25-.53a4.09 4.09 0 0 1-1.52-1.48 4.18 4.18 0 0 1-.55-2.14c0-.86.18-1.62.53-2.26.37-.65.86-1.16 1.48-1.52a4.28 4.28 0 0 1 2.16-.58 3.67 3.67 0 0 1 3.23 1.93c.34.6.5 1.27.47 2.04l-.01.68h-6.25c.09.74.39 1.32.9 1.76.52.42 1.17.64 1.96.64.4 0 .77-.07 1.12-.2.35-.14.73-.39 1.13-.74l.8 1.14a4.85 4.85 0 0 1-3.22 1.26Zm-.15-7.03c-1.4 0-2.23.63-2.5 1.9h4.57v-.11a1.8 1.8 0 0 0-.34-.92 2.11 2.11 0 0 0-1.73-.87ZM100.9 34.2v-8.16h1.6v1.54c.25-.49.6-.9 1.05-1.21a2.42 2.42 0 0 1 2.33-.35l-.42 1.74c-.12-.05-.26-.09-.42-.12a1.57 1.57 0 0 0-.43-.06c-.38 0-.72.1-1.04.28-.31.18-.57.44-.77.76-.2.32-.3.68-.3 1.07v4.51h-1.6ZM109.95 34.36c-.67 0-1.29-.19-1.85-.56a4.03 4.03 0 0 1-1.32-1.53 4.67 4.67 0 0 1-.5-2.17c0-.82.17-1.55.5-2.18.34-.64.8-1.15 1.37-1.5a3.6 3.6 0 0 1 3.56-.15c.48.26.84.6 1.09 1.01v-1.24h1.62v8.16h-1.62v-1.26c-.28.4-.68.73-1.2 1.01-.5.27-1.05.4-1.64.4Zm.42-1.48a2.34 2.34 0 0 0 2.17-1.34c.21-.42.32-.9.32-1.44a3 3 0 0 0-.32-1.42 2.34 2.34 0 0 0-2.16-1.34 2.32 2.32 0 0 0-2.15 1.34c-.2.42-.31.89-.31 1.42 0 .54.1 1.02.3 1.44.23.42.52.74.88.98.37.24.8.36 1.27.36ZM116.65 37.62V26.04h1.62v1.16a3.1 3.1 0 0 1 1.1-.91 3.57 3.57 0 0 1 3.5.16c.57.36 1.02.85 1.36 1.49.33.63.5 1.35.5 2.17 0 .81-.17 1.54-.5 2.18a3.85 3.85 0 0 1-1.34 1.5 3.52 3.52 0 0 1-3.45.2 3.67 3.67 0 0 1-1.17-.86v4.5h-1.62Zm4.05-4.76c.47 0 .9-.11 1.27-.35s.67-.57.89-.98a3 3 0 0 0 .32-1.42c0-.53-.1-1-.32-1.4a2.34 2.34 0 0 0-2.16-1.34 2.42 2.42 0 0 0-2.18 1.32 3 3 0 0 0-.33 1.42c0 .53.11 1 .33 1.42.22.41.51.74.89.98.37.24.8.35 1.29.35ZM127.53 37.78l1.38-3.19-3.8-8.55h1.87l2.55 6c.06.11.12.3.2.54l.24-.65 2.13-5.9h1.9l-3.36 8.17-1.39 3.58h-1.72ZM143.31 34.36a4.7 4.7 0 0 1-4.1-2.12l1.15-1.32c.5.73 1 1.23 1.46 1.5.47.29 1.02.43 1.67.43.59 0 1.08-.14 1.49-.4.41-.27.62-.62.62-1.05 0-.47-.2-.86-.6-1.16a4.6 4.6 0 0 0-1.92-.72c-2.22-.43-3.33-1.54-3.33-3.31 0-.6.17-1.11.5-1.57.33-.46.78-.81 1.34-1.07.57-.27 1.2-.4 1.91-.4 1.71 0 2.94.63 3.69 1.9L146 26.24c-.3-.5-.68-.9-1.12-1.17-.42-.27-.9-.4-1.43-.4-.6 0-1.08.14-1.46.42-.37.27-.56.63-.56 1.07 0 .45.17.81.5 1.1.34.26.92.48 1.74.64 1.14.24 2.03.63 2.66 1.15.63.53.95 1.17.95 1.92 0 1.03-.36 1.86-1.07 2.47-.7.61-1.67.92-2.9.92ZM153.06 34.36c-.84 0-1.58-.18-2.24-.53a4.09 4.09 0 0 1-1.52-1.48 4.18 4.18 0 0 1-.54-2.14c0-.86.17-1.62.53-2.26.36-.65.85-1.16 1.47-1.52a4.29 4.29 0 0 1 2.16-.58 3.67 3.67 0 0 1 3.24 1.93c.33.6.49 1.27.46 2.04l-.01.68h-6.25c.1.74.4 1.32.9 1.76.52.42 1.17.64 1.96.64.4 0 .78-.07 1.12-.2.35-.14.73-.39 1.13-.74l.81 1.14a4.85 4.85 0 0 1-3.22 1.26Zm-.14-7.03c-1.4 0-2.23.63-2.5 1.9h4.57v-.11a1.8 1.8 0 0 0-.34-.92 2.1 2.1 0 0 0-1.73-.87ZM158.37 34.2v-8.16h1.61v1.54c.24-.49.59-.9 1.04-1.21a2.42 2.42 0 0 1 2.34-.35l-.42 1.74c-.13-.05-.27-.09-.42-.12a1.57 1.57 0 0 0-.44-.06c-.37 0-.72.1-1.04.28-.31.18-.57.44-.76.76-.2.32-.3.68-.3 1.07v4.51h-1.61ZM168.09 34.2l-3.46-8.16h1.73l2.38 5.83 2.47-5.83h1.65l-3.63 8.16h-1.14ZM175.4 24.23c-.35 0-.61-.08-.8-.26a.98.98 0 0 1-.28-.75c0-.3.1-.54.28-.73.2-.18.46-.28.8-.28s.6.1.79.27c.19.17.28.42.28.74 0 .3-.1.55-.3.73-.18.2-.44.28-.77.28Zm-.78 9.97v-8.16h1.6v8.16h-1.6ZM182.12 34.36a3.79 3.79 0 0 1-3.45-2.09 4.53 4.53 0 0 1-.52-2.16c0-.8.17-1.52.52-2.16a3.79 3.79 0 0 1 3.45-2.08c.72 0 1.38.15 1.97.45.6.29 1.06.69 1.37 1.2l-.89 1.08c-.24-.36-.6-.66-1.04-.91a2.45 2.45 0 0 0-2.6 0c-.38.24-.68.57-.91 1-.23.42-.34.9-.34 1.42 0 .53.12 1 .35 1.43.24.42.56.75.95 1 .4.25.83.37 1.3.37.85 0 1.61-.41 2.3-1.24l.88 1.09a4.28 4.28 0 0 1-3.34 1.6ZM190.78 34.36c-.84 0-1.59-.18-2.24-.53a4.09 4.09 0 0 1-1.52-1.48 4.18 4.18 0 0 1-.55-2.14c0-.86.18-1.62.53-2.26.37-.65.86-1.16 1.48-1.52a4.28 4.28 0 0 1 2.16-.58 3.67 3.67 0 0 1 3.24 1.93c.33.6.48 1.27.46 2.04l-.01.68h-6.25c.09.74.39 1.32.9 1.76.52.42 1.17.64 1.96.64.4 0 .77-.07 1.12-.2a3.9 3.9 0 0 0 1.13-.74l.81 1.14a4.85 4.85 0 0 1-3.22 1.26Zm-.14-7.03c-1.4 0-2.23.63-2.5 1.9h4.57v-.11a1.8 1.8 0 0 0-.34-.92 2.1 2.1 0 0 0-1.73-.87ZM198.8 34.36a4.6 4.6 0 0 1-1.85-.36c-.55-.24-1-.6-1.36-1.06l1.08-.93c.31.36.65.63 1.01.8.38.15.8.23 1.26.23.39 0 .7-.1.94-.28a.9.9 0 0 0 .37-.77c0-.27-.1-.48-.3-.65-.2-.15-.64-.33-1.35-.51-.6-.16-1.1-.33-1.48-.53a2.8 2.8 0 0 1-.88-.67c-.3-.37-.45-.84-.45-1.41a2 2 0 0 1 .39-1.22c.25-.35.6-.62 1.04-.82.44-.2.94-.31 1.49-.31a4.1 4.1 0 0 1 3 1.3l-.92 1.01a3.6 3.6 0 0 0-1-.71 2.2 2.2 0 0 0-1-.28c-.45 0-.8.08-1.04.25a.83.83 0 0 0-.36.73c0 .28.12.5.34.68.22.18.68.36 1.38.53.52.14.95.29 1.28.45.34.16.61.34.8.55.22.2.36.42.44.68.09.26.13.55.13.87 0 .47-.14.89-.4 1.26-.27.36-.62.65-1.06.86-.45.2-.95.3-1.5.3Z" fill="#222"/><defs><linearGradient id="a" x1="28.75" y1="10" x2="16.1" y2="44.81" gradientUnits="userSpaceOnUse"><stop stop-color="#4D93E3"/><stop offset="1" stop-color="#8ECB7F"/></linearGradient></defs>
</svg>